<svg xmlns="http://www.w3.org/2000/svg" viewBox="0 0 24 24">
  <path fill="#000000" d="M16.37 1.43c0 1.14-.47 2.28-1.25 3.09-.8.84-2.1 1.48-3.24 1.39-.15-1.1.44-2.27 1.21-3.08.79-.84 2.15-1.46 3.28-1.4zM21.32 17.3c-.52 1.18-.77 1.7-1.44 2.73-.94 1.45-2.27 3.26-3.92 3.27-1.48.01-1.87-.96-3.88-.95-2.01.01-2.44.97-3.92.96-1.65-.01-2.92-1.64-3.86-3.09-2.63-4.04-2.9-8.78-1.28-11.26.82-1.25 2.12-1.99 3.34-1.99 1.53 0 2.49 1 3.88 1 1.35 0 2.18-1 3.86-1 1.09 0 2.24.6 3.06 1.64-2.7 1.48-2.26 5.32.16 6.33z"></path>
</svg>