<svg xmlns="http://www.w3.org/2000/svg" viewBox="0 0 48 48">
  <path fill="#EA4335" d="M24 9.5c3.54 0 6.68 1.22 9.17 3.6l6.85-6.85C35.64 2.52 30.2 0 24 0 14.82 0 6.88 5.4 2.96 13.2l7.98 6.2C12.8 13.4 17.92 9.5 24 9.5z"></path>
  <path fill="#4285F4" d="M46.1 24.5c0-1.6-.14-3.14-.4-4.64H24v9.28h12.4c-.54 2.9-2.2 5.36-4.7 7.02l7.3 5.66C43.96 37.3 46.1 31.4 46.1 24.5z"></path>
  <path fill="#FBBC05" d="M10.94 28.4a14.5 14.5 0 010-8.8l-7.98-6.2A24 24 0 000 24c0 3.8.9 7.4 2.96 10.6l7.98-6.2z"></path>
  <path fill="#34A853" d="M24 48c6.2 0 11.64-2.06 15.52-5.6l-7.3-5.66c-2.02 1.36-4.6 2.16-8.22 2.16-6.08 0-11.2-3.9-13.06-9.2l-7.98 6.2C6.88 42.6 14.82 48 24 48z"></path>
</svg>